<?xml version="1.0" encoding="UTF-8"?>
<svg width="455px" height="412px" viewBox="0 0 455 412" version="1.1" xmlns="http://www.w3.org/2000/svg" xmlns:xlink="http://www.w3.org/1999/xlink">
    <!-- Generator: Sketch 53.2 (72643) - https://sketchapp.com -->
    <title>logo</title>
    <desc>Created with Sketch.</desc>
    <g id="Page-1" stroke="none" stroke-width="1" fill="none" fill-rule="evenodd">
        <path d="M142.719785,86 L145.63884,86 C145.872418,85.4548427 146.188751,84.8848122 146.581094,84.3244883 C148.006593,82.288665 149.895682,81.1519019 150.800492,81.785457 C151.613957,82.3550511 151.354904,84.1616415 150.258425,86 L171,86 L171,88 L181,88 L181,94 L171,94 L171,98 L181,98 L181,104 L171,104 L171,108 L181,108 L181,114 L171,114 L171,121 L135,121 L135,114 L101,114 L101,108 L135,108 L135,104 L101,104 L101,98 L135,98 L135,94 L101,94 L101,88 L135,88 L135,86 L137.443165,86 C136.837863,84.9827101 136.517256,83.5789857 137,82 C137.52223,80.2918622 138.868317,78.7589806 140.15725,77.8679658 C138.845702,76.86274 138,75.2801322 138,73.5 C138,70.6309787 140.19675,68.2750359 143,68.0224215 L143,5.28139669 L44,132.139669 L44,133 L49,133 L49,131 L58,131 L58,135 L58,137 L45,137 L45,212.214286 L67,191 L81,200.180328 L81,167 L88,161.12 L88,145 L119,114 L151,145 L151,160.961538 L174,176 L174.912364,261.762206 L189,271 L189,388 L107,388 L107,284 L81,297 L81,388 L11,388 L11,281 L11,263 L14,261.68883 L14,137 L0,137 L0,133 L5,133 L5,132 L5,128 L9,128 L9,130 L14,130 L14,103.242641 L11.1213203,100.363961 C9.94974747,99.1923882 9.94974747,97.2928932 11.1213203,96.1213203 C11.4013986,95.841242 11.7230781,95.6281198 12.0664681,95.4819535 L138.999991,6.42398889e-06 L139.00812,0.00162409311 L143.932236,0.986447102 L143.968482,0.940053768 L143.969036,0.993807125 L144,1 C143.989635,1.04447538 143.979787,1.08839074 143.970456,1.13174607 L143.9794,2 L144,2 L144,68.0224215 C146.80325,68.2750359 149,70.6309787 149,73.5 C149,76.3678599 146.805028,78.7230566 144.003404,78.9772707 C144.00224,78.9847641 144.001106,78.9923402 144,79 C143.962006,79.2632419 141.968057,81.4852422 142,83 C142.021877,84.0373935 142.430145,85.1914814 142.719785,86 Z M42.3545154,131 L142.580831,2.71616617 L139.621188,2.12423758 L37.8511997,123.408987 L39.5591813,125.759822 C40.80262,127.471268 41.3413022,129.402995 41.1625861,131 L42.3545154,131 Z M36.6405688,121.742696 L136.5158,2.95461673 L13.9377029,95.323838 C14.4603739,95.4477781 14.9562462,95.7136055 15.363961,96.1213203 L19.6066017,100.363961 C20.7781746,101.535534 20.7781746,103.435029 19.6066017,104.606602 C19.5679155,104.645288 19.5284355,104.682697 19.4882142,104.718828 L25.1586991,112.243816 C27.1813589,111.444043 30.0380152,112.655061 31.9179731,115.242601 L36.6405688,121.742696 Z M17,137 L17,144.802715 L26.2989131,137 L17,137 Z M31.2679542,137 L42,144.284324 L42,137 L31.2679542,137 Z M30,254.695926 L37.3948058,251.463978 L30,246.44479 L30,254.695926 Z M21.5233624,258.400696 L17,254.605144 L17,260.377661 L21.5233624,258.400696 Z M39,221.15977 L30.8317511,226.703929 L39,232.248088 L39,221.15977 Z M39,239.15977 L30.0950976,245.203929 L38.5647335,250.952653 L39,250.762417 L39,239.15977 Z M39,237.854363 L39,233.553496 L30,227.44479 L30,243.963069 L39,237.854363 Z M39,219.854363 L39,218 L40.489019,216.56416 L30,209.44479 L30,225.963069 L39,219.854363 Z M42,215.107143 L42,201.123535 L30.8317511,208.703929 L41.2835308,215.798024 L42,215.107143 Z M27,256.007096 L27,245.717125 L17.4816979,253.703929 L22.5462837,257.953621 L27,256.007096 Z M143.5,77 C145.432997,77 147,75.4329966 147,73.5 C147,71.5670034 145.432997,70 143.5,70 C141.567003,70 140,71.5670034 140,73.5 C140,75.4329966 141.567003,77 143.5,77 Z M30,191.44479 L30,207.963069 L42,199.818127 L42,199.589731 L30,191.44479 Z M42,198.284324 L42,183.123535 L30.8317511,190.703929 L42,198.284324 Z M30,173.44479 L30,189.963069 L42,181.818127 L42,181.589731 L30,173.44479 Z M42,180.284324 L42,165.123535 L30.8317511,172.703929 L42,180.284324 Z M30,171.963069 L42,163.818127 L42,163.589731 L30,155.44479 L30,171.963069 Z M30.8317511,154.703929 L42,162.284324 L42,147.123535 L30.8317511,154.703929 Z M30,137.44479 L30,153.963069 L42,145.818127 L42,145.589731 L30,137.44479 Z M17,252.802715 L26.6517564,244.703929 L17,236.605144 L17,252.802715 Z M17,234.802715 L26.6517564,226.703929 L17,218.605144 L17,234.802715 Z M27,243.690733 L27,227.717125 L17.4816979,235.703929 L27,243.690733 Z M17,216.802715 L26.6517564,208.703929 L17,200.605144 L17,216.802715 Z M27,225.690733 L27,209.717125 L17.4816979,217.703929 L27,225.690733 Z M17,198.802715 L26.6517564,190.703929 L17,182.605144 L17,198.802715 Z M27,207.690733 L27,191.717125 L17.4816979,199.703929 L27,207.690733 Z M17,180.802715 L26.6517564,172.703929 L17,164.605144 L17,180.802715 Z M27,189.690733 L27,173.717125 L17.4816979,181.703929 L27,189.690733 Z M17,162.802715 L26.6517564,154.703929 L17,146.605144 L17,162.802715 Z M27,155.717125 L17.4816979,163.703929 L27,171.690733 L27,155.717125 Z M27,153.690733 L27,137.717125 L17.4816979,145.703929 L27,153.690733 Z M44,219 L44,250 L65,261 L65,201 L44,219 Z M93,147 L93,157 L118,136 L118,122 L93,147 Z M86,203 L90,205.628571 L90,203 L99,201 L99,209 L95.6900826,209.367769 L105,215.485714 L105,210 L114,209 L114,221.4 L119,224.685714 L119,143 L86,170 L86,203 Z M90,174 L99,169 L99,183 L90,186 L90,174 Z M105,166 L114,161 L114,178 L105,181 L105,166 Z M90,190 L99,187 L99,198 L90,200 L90,190 Z M105,185 L114,182 L114,194 L105,196 L105,185 Z M105,200 L114,198 L114,206 L105,207 L105,200 Z M152,238 L152,253 L167,261 L167,248 L152,238 Z M148,285 L148,236 L126,245 L126,285 L144,293.181818 L144,302 L148,309 L148,285 Z M135,245.333333 L144,242 L144,255.333333 L135,257 L135,245.333333 Z M135,261 L144,259 L144,271.333333 L135,272 L135,261 Z M135,275 L144,274 L144,286 L135,286 L135,275 Z M121,323.546275 L121,309.855375 L112,307.443832 L112,322.120815 L121,323.546275 Z M121,325.571205 L112,324.145745 L112,336 L121,336 L121,325.571205 Z M112,305.37328 L121,307.784823 L121,294.6 L112,291 L112,305.37328 Z M123,308.272727 L132,310.727273 L132,299 L123,295.4 L123,308.272727 Z M92,339.9616 L84,340.380863 L84,328.52017 L92,327.537893 L92,339.9616 Z M92,342.965717 L92,356 L84,356 L84,343.38498 L92,342.965717 Z M104,339.332707 L95,339.804377 L95,327.169539 L104,326.064478 L104,339.332707 Z M104,342.336824 L104,356 L95,356 L95,342.808494 L104,342.336824 Z M92,324.515364 L84,325.49764 L84,313.461827 L92,311.467203 L92,324.515364 Z M104,323.041949 L95,324.14701 L95,310.719219 L104,308.475267 L104,323.041949 Z M92,308.375363 L84,310.369987 L84,299 L92,295.4 L92,308.375363 Z M104,305.383426 L95,307.627379 L95,294.05 L104,290 L104,305.383426 Z M18.640087,105.254966 C17.5513655,105.708416 16.249654,105.492295 15.363961,104.606602 L15,104.242641 L15,129.192388 L24.2443071,119.948081 C22.5767771,117.252122 22.57767,114.183094 24.2928946,112.756494 L18.640087,105.254966 Z M26.6060971,123.243145 L19.8492424,130 L20,130 L20,133 L25,133 L25,131 L32.2417819,131 L26.6060971,123.243145 Z M26.4188375,115.36538 C25.525222,116.01463 26.0508155,118.261445 27.5927834,120.383781 L33.1767433,128.069443 C34.7187113,130.19178 36.6931418,131.385953 37.5867572,130.736703 C38.4803727,130.087453 37.9547792,127.840639 36.4128113,125.718302 L30.8288514,118.03264 C29.2868834,115.910304 27.312453,114.71613 26.4188375,115.36538 Z" id="Combined-Shape" fill="#000000"></path>
        <path d="M102,261 L113,272 C110.812351,276.264061 107.455967,276.767688 106,277 C104.393153,277.256386 106.641988,277 103,277 C92.158,277 73,260.558 73,248 L73,235.876 C73,223.396 72.924,216 84,216 C88.9903036,216 100.655801,220.749268 107,229 C109.282878,231.96892 112.823509,238.399336 114,241 L103,241 C99.256,234.136 87,225.136 87,232 L87,252 C87,257.470067 94.2961856,262 99,262 C100,262 101.467795,262.337334 102,261 Z M20,323 L20,269 L35,276 L35,316 L48,323 L48,283 L63,290 L62.502,328.74 L69,333 L69,358 L56,351 L55.95,342 L20,323 Z M142,185 L154,176 L169,186 L151,199 L169,235 L153,224 L142.508,203.49 L142.04,204.114 L142,218 L128,209 L128,161 L142,169 L142,185 Z" id="Combined-Shape" fill="#FFFFFF" fill-rule="nonzero"></path>
        <text id="ЦЕНТР-СТРОИТЕЛЬНОЙ-К" font-family="MyriadPro-BoldCond, Myriad Pro" font-size="40" font-style="condensed" font-weight="bold" letter-spacing="2.20000005" fill="#000000">
            <tspan x="199" y="303">ЦЕНТР</tspan>
            <tspan x="199" y="343">СТРОИТЕЛЬНОЙ</tspan>
            <tspan x="199" y="383">КОМПЛЕКТАЦИ</tspan>
            <tspan x="433.840001" y="383">И</tspan>
        </text>
        <rect id="Rectangle" fill="#D0021B" x="11" y="398" width="443" height="14"></rect>
    </g>
</svg>